<?xml version="1.0" encoding="utf-8"?>
<svg xmlns="http://www.w3.org/2000/svg" width="42.769" height="38.693" viewBox="0 0 42.769 38.693">
  <path id="Path_7278" data-name="Path 7278" d="M1628.154,421.815,1622.72,443.5a1.027,1.027,0,0,1-1.006.755h-20.429l.453,1.811a3.881,3.881,0,0,1,3.573,2.817l9.963.051a3.8,3.8,0,1,1,0,2.062l-9.963-.05a3.872,3.872,0,0,1-7.6-1.006,3.817,3.817,0,0,1,2.013-3.372l-1.862-7.7-4.277-17.108c0-.05-.051-.1-.051-.151l-1.107-4.479h-5.988a1.032,1.032,0,1,1,0-2.062h6.793a1.038,1.038,0,0,1,1.057.856l1.107,4.579h31.75a1.009,1.009,0,0,1,1.006,1.006Zm-14.189,20.378.2-3.371h-6.593l.2,3.371Zm.3-5.434.4-6.038h-7.6l.352,6.038Zm.553-8.1.352-6.089h-8.655l.4,6.089Zm2.414-6.089-.352,6.089h7.4l1.56-6.089Zm-.5,8.152-.352,6.038h5.886l1.51-6.038Zm-.5,8.1-.2,3.371h4.881l.856-3.371Zm-10.516,3.371-.2-3.371h-5.535l.856,3.371Zm-.354-5.434-.4-6.038h-6.994l1.51,6.038Zm-.5-8.1-.4-6.089H1595.9l.6,2.315.906,3.774Z" transform="translate(-1585.384 -415.072)" fill="#fff"/>
</svg>
